<svg aria-hidden="true" style="position: absolute; width: 0; height: 0; overflow: hidden;" version="1.1" xmlns="http://www.w3.org/2000/svg" xmlns:xlink="http://www.w3.org/1999/xlink">
  <defs>
    <symbol id="icon-arrow-down" viewBox="0 0 32 32">
    <path stroke-linejoin="round" stroke-linecap="round" stroke-miterlimit="4" stroke-width="1" d="M15.995 5.996l0.004 20.007M15.998 26.004l5.386-5.386M15.998 26.004l-5.387-5.386"></path>
    </symbol>

    <symbol id="icon-arrow-left-short" viewBox="0 0 32 32">
    <path stroke-linejoin="round" stroke-linecap="round" stroke-miterlimit="4" stroke-width="1" d="M22 16.004h-12M10 16.004l5.384 5.386M10 16.004l5.384-5.386"></path>
    </symbol>

    <symbol id="icon-arrow-left" viewBox="0 0 32 32">
    <path stroke-linejoin="round" stroke-linecap="round" stroke-miterlimit="4" stroke-width="1" d="M25.996 16l-19.996 0.004M6 16.004l5.384 5.386M6 16.004l5.384-5.386"></path>
    </symbol>

    <symbol id="icon-arrow-right-short" viewBox="0 0 32 32">
    <path stroke-linejoin="round" stroke-linecap="round" stroke-miterlimit="4" stroke-width="1" d="M10 16.004h12M22 16.004l-5.384 5.386M22 16.004l-5.384-5.386"></path>
    </symbol>

    <symbol id="icon-arrow-right" viewBox="0 0 32 32">
    <path stroke-linejoin="round" stroke-linecap="round" stroke-miterlimit="4" stroke-width="1" d="M6 16.004l19.996-0.004M25.996 16l-5.384-5.386M25.996 16l-5.384 5.386"></path>
    </symbol>

    <symbol id="icon-arrow-up" viewBox="0 0 32 32">
    <path stroke-linejoin="round" stroke-linecap="round" stroke-miterlimit="4" stroke-width="1" d="M15.998 26.004l-0.004-20.007M15.994 5.996l-5.386 5.387M15.994 5.996l5.387 5.387"></path>
    </symbol>

    <symbol id="icon-bookmark-alternative" viewBox="0 0 32 32">
    <path stroke-linejoin="round" stroke-linecap="round" stroke-miterlimit="4" stroke-width="1" d="M15.996 4.5c2.033 0 3.864 0.233 5.177 0.463 1.168 0.205 2.090 1.002 2.388 2.118 0.471 1.764 1.012 4.734 0.932 8.909-0.089 4.623-0.845 7.785-1.48 9.652-0.131 0.385-0.413 0.586-0.727 0.636-0.325 0.051-0.714-0.060-1.023-0.377-0.795-0.816-1.781-1.778-2.702-2.539-0.46-0.38-0.916-0.72-1.331-0.967-0.395-0.235-0.831-0.433-1.231-0.434-0.394 0-0.849 0.195-1.273 0.427-0.448 0.245-0.95 0.583-1.466 0.963-1.033 0.762-2.161 1.725-3.076 2.541-0.343 0.306-0.754 0.382-1.087 0.296-0.324-0.084-0.599-0.328-0.693-0.746-0.429-1.904-0.9-5.003-0.9-9.442 0-4.364 0.511-7.273 0.952-8.971 0.281-1.083 1.174-1.855 2.313-2.057 1.316-0.233 3.17-0.473 5.23-0.473z"></path>
    </symbol>

    <symbol id="icon-burger" viewBox="0 0 32 32">
    <path stroke-linejoin="miter" stroke-linecap="round" stroke-miterlimit="4" stroke-width="1" d="M7.5 9.5h17M7.5 21.5h17M7.5 15.5h17"></path>
    </symbol>

    <symbol id="icon-chevron-down-small" viewBox="0 0 32 32">
    <path stroke-linejoin="round" stroke-linecap="round" stroke-miterlimit="4" stroke-width="1" d="M22 13l-6 6-6-6"></path>
    </symbol>

    <symbol id="icon-chevron-down" viewBox="0 0 32 32">
    <path stroke-linejoin="round" stroke-linecap="round" stroke-miterlimit="4" stroke-width="1" d="M25 11.5l-9 9-9-9"></path>
    </symbol>

    <symbol id="icon-chevron-left-small" viewBox="0 0 32 32">
    <path stroke-linejoin="round" stroke-linecap="round" stroke-miterlimit="4" stroke-width="1" d="M19 22l-6-6 6-6"></path>
    </symbol>

    <symbol id="icon-chevron-left" viewBox="0 0 32 32">
    <path stroke-linejoin="round" stroke-linecap="round" stroke-miterlimit="4" stroke-width="1" d="M20.5 25l-9-9 9-9"></path>
    </symbol>

    <symbol id="icon-chevron-right-small" viewBox="0 0 32 32">
    <path stroke-linejoin="round" stroke-linecap="round" stroke-miterlimit="4" stroke-width="1" d="M13 10l6 6-6 6"></path>
    </symbol>

    <symbol id="icon-chevron-right" viewBox="0 0 32 32">
    <path stroke-linejoin="round" stroke-linecap="round" stroke-miterlimit="4" stroke-width="1" d="M11.5 7l9 9-9 9"></path>
    </symbol>

    <symbol id="icon-chevron-up-small" viewBox="0 0 32 32">
    <path stroke-linejoin="round" stroke-linecap="round" stroke-miterlimit="4" stroke-width="1" d="M10 19l6-6 6 6"></path>
    </symbol>

    <symbol id="icon-chevron-up" viewBox="0 0 32 32">
    <path stroke-linejoin="round" stroke-linecap="round" stroke-miterlimit="4" stroke-width="1" d="M7 20.5l9-9 9 9"></path>
    </symbol>

    <symbol id="icon-close-small" viewBox="0 0 32 32">
    <path stroke-linejoin="round" stroke-linecap="round" stroke-miterlimit="4" stroke-width="1" d="M10 10l6 6M16 16l-6 6M16 16l6 6M16 16l6-6"></path>
    </symbol>

    <symbol id="icon-close" viewBox="0 0 32 32">
    <path stroke-linejoin="round" stroke-linecap="round" stroke-miterlimit="4" stroke-width="1" d="M7 7l9 9M16 16l-9 9M16 16l9 9M16 16l9-9"></path>
    </symbol>

    <symbol id="icon-delete" viewBox="0 0 32 32">
    <path stroke-linejoin="round" stroke-linecap="round" stroke-miterlimit="4" stroke-width="1" d="M16 21.846v-8.769M6.5 9.423h2.192M25.5 9.423h-2.192M19.654 9.423h-7.308M19.654 9.423v-1.462c0-0.807-0.654-1.462-1.462-1.462h-4.385c-0.807 0-1.462 0.654-1.462 1.462v1.462M19.654 9.423h3.654M12.346 9.423h-3.654M23.308 9.423v13.154c0 1.614-1.309 2.923-2.923 2.923h-8.769c-1.614 0-2.923-1.309-2.923-2.923v-13.154"></path>
    </symbol>

    <symbol id="icon-eye-crossed" viewBox="0 0 32 32">
    <path stroke-linejoin="miter" stroke-linecap="round" stroke-miterlimit="4" stroke-width="1" d="M19.214 22.65c-1.086 0.504-2.291 0.832-3.56 0.832-4.779 0-8.654-4.655-8.654-5.838 0-0.67 1.245-2.456 3.194-3.878M23.269 19.516c0.662-0.797 1.038-1.502 1.038-1.871 0-1.183-3.874-5.838-8.654-5.838 2.103 0 3.808 1.691 3.808 3.777M15.654 19.362c-2.103 0-3.808-1.691-3.808-3.777M25 11.807c-2.636-2.181-5.713-3.434-9-3.434-1.185 0-2.342 0.163-3.462 0.473M7 11.807c0.244-0.202 0.492-0.396 0.744-0.582M7 7l16.714 16.875"></path>
    </symbol>

    <symbol id="icon-eye" viewBox="0 0 32 32">
    <path stroke-linejoin="miter" stroke-linecap="round" stroke-miterlimit="4" stroke-width="1" d="M15.654 11.909c-4.779 0-8.654 4.621-8.654 5.795s3.874 5.796 8.654 5.796c4.779 0 8.654-4.621 8.654-5.796s-3.875-5.795-8.654-5.795zM15.654 11.909c-2.103 0-3.808 1.679-3.808 3.75s1.705 3.75 3.808 3.75 3.808-1.679 3.808-3.75c0-2.071-1.705-3.75-3.808-3.75zM25 11.909c-2.636-2.166-5.713-3.409-9-3.409s-6.364 1.243-9 3.409"></path>
    </symbol>

    <symbol id="icon-heart" viewBox="0 0 32 32">
    <path stroke-linejoin="round" stroke-linecap="round" stroke-miterlimit="4" stroke-width="1" d="M24.098 8.903c-1.869-1.871-4.899-1.871-6.768 0l-1.331 1.332-1.331-1.332c-1.869-1.871-4.899-1.871-6.768 0s-1.869 4.904 0 6.775l8.098 8.786 8.098-8.786c1.869-1.871 1.869-4.904 0-6.775z"></path>
    </symbol>

    <symbol id="icon-home" viewBox="0 0 32 32">
    <path d="M6.5 16.524v0zM6.5 24.044v0zM24.038 25.5v0zM7.962 25.5v0zM25.5 16.524v0zM25.5 24.044v0zM24.727 14.55v0zM18.15 7.439v0zM13.85 7.439v0zM7.273 14.55v0zM13.077 18.219v0zM13.077 24.772v0zM18.192 25.5v0zM13.808 25.5v0zM18.923 18.22v0zM18.923 24.772v0zM18.192 17.491v0zM13.808 17.491v0zM6.5 16.524h-0.5v7.52h1v-7.52h-0.5zM24.038 25.5v-0.5h-16.077v1h16.077v-0.5zM25.5 16.524h-0.5v7.52h1v-7.52h-0.5zM24.727 14.55l0.367-0.339-6.577-7.112-0.734 0.679 6.577 7.112 0.367-0.339zM13.85 7.439l-0.367-0.34-6.577 7.112 0.734 0.679 6.577-7.112-0.367-0.339zM18.15 7.439l0.367-0.339c-1.356-1.466-3.678-1.466-5.034 0l0.734 0.679c0.96-1.038 2.605-1.038 3.565 0l0.367-0.34zM25.5 16.524h0.5c0-0.857-0.324-1.683-0.906-2.313l-0.734 0.679c0.412 0.446 0.64 1.029 0.64 1.634h0.5zM6.5 16.524h0.5c0-0.605 0.228-1.188 0.64-1.634l-0.734-0.679c-0.583 0.63-0.906 1.456-0.906 2.313h0.5zM6.5 24.044h-0.5c0 1.082 0.88 1.956 1.962 1.956v-1c-0.533 0-0.962-0.43-0.962-0.956h-0.5zM24.038 25.5v0.5c1.081 0 1.962-0.874 1.962-1.956h-1c0 0.526-0.429 0.956-0.962 0.956v0.5zM13.077 18.219h-0.5v6.553h1v-6.553h-0.5zM18.192 25.5v-0.5h-4.385v1h4.385v-0.5zM18.923 18.22h-0.5v6.552h1v-6.552h-0.5zM18.192 17.491v-0.5h-4.385v1h4.385v-0.5zM18.923 18.22h0.5c0-0.68-0.553-1.228-1.231-1.228v1c0.129 0 0.231 0.104 0.231 0.228h0.5zM13.077 18.219h0.5c0-0.124 0.102-0.228 0.231-0.228v-1c-0.678 0-1.231 0.548-1.231 1.228h0.5zM13.077 24.772h-0.5c0 0.68 0.553 1.228 1.231 1.228v-1c-0.129 0-0.231-0.104-0.231-0.228h-0.5zM18.192 25.5v0.5c0.678 0 1.231-0.548 1.231-1.228h-1c0 0.124-0.102 0.228-0.231 0.228v0.5z"></path>
    </symbol>

    <symbol id="icon-log-in" viewBox="0 0 32 32">
    <path stroke-linejoin="round" stroke-linecap="round" stroke-miterlimit="4" stroke-width="1" d="M25.5 16h-14.615M10.885 16l4.385-4.385M10.885 16l4.385 4.385M13.077 6.5h-3.654c-1.614 0-2.923 1.309-2.923 2.923v13.154c0 1.614 1.309 2.923 2.923 2.923h3.654"></path>
    </symbol>

    <symbol id="icon-log-out" viewBox="0 0 32 32">
    <path stroke-linejoin="round" stroke-linecap="round" stroke-miterlimit="4" stroke-width="1" d="M13.077 6.5h-3.654c-1.614 0-2.923 1.309-2.923 2.923v13.154c0 1.614 1.309 2.923 2.923 2.923h3.654M11.5 16h14.615M26.115 16l-4.385 4.385M26.115 16l-4.385-4.385"></path>
    </symbol>

    <symbol id="icon-search" viewBox="0 0 32 32">
    <path stroke-linejoin="miter" stroke-linecap="round" stroke-miterlimit="4" stroke-width="1" d="M25 25l-4.413-4.405M20.587 20.595c1.443-1.441 2.336-3.433 2.336-5.634 0-4.397-3.564-7.962-7.962-7.962s-7.962 3.564-7.962 7.962c0 4.397 3.564 7.962 7.962 7.962 2.197 0 4.185-0.89 5.626-2.328z"></path>
    </symbol>

    <symbol id="icon-share" viewBox="0 0 32 32">
    <path stroke-linejoin="round" stroke-linecap="round" stroke-miterlimit="4" stroke-width="1" d="M16 19v-15M16 4l-4.042 3.6M16 4l4.042 3.6M12.16 11h-4.046c-0.947 0-1.714 0.768-1.714 1.714v13.572c0 0.947 0.768 1.714 1.714 1.714h15.771c0.947 0 1.714-0.768 1.714-1.714v-13.572c0-0.947-0.767-1.714-1.714-1.714h-4.046"></path>
    </symbol>

    <symbol id="icon-user" viewBox="0 0 32 32">
    <path stroke-linejoin="miter" stroke-linecap="butt" stroke-miterlimit="4" stroke-width="1" d="M20.384 10.885c0 2.422-1.963 4.385-4.385 4.385s-4.385-1.963-4.385-4.385c0-2.422 1.963-4.385 4.385-4.385s4.385 1.963 4.385 4.385z"></path>
    <path stroke-linejoin="miter" stroke-linecap="butt" stroke-miterlimit="4" stroke-width="1" d="M16 25.5c4.343 0 6.846-1.12 8.007-1.841 0.543-0.337 0.811-0.959 0.756-1.602-0.075-0.879-0.383-1.757-0.695-2.453-0.41-0.914-1.361-1.411-2.363-1.411h-11.407c-1.002 0-1.953 0.497-2.363 1.411-0.313 0.696-0.62 1.574-0.695 2.453-0.055 0.644 0.212 1.265 0.756 1.602 1.161 0.721 3.663 1.841 8.006 1.841z"></path>
    </symbol>

    <symbol id="icon-camera" viewBox="0 0 38 32">
<path stroke-linejoin="miter" stroke-linecap="butt" stroke-miterlimit="4" stroke-width="0.6598" d="M7.773 22.5v-8.906c0-1.496 1.451-2.71 3.241-2.71 1.227 0 2.35-0.58 2.898-1.498l0.734-1.229c0.608-1.016 1.85-1.658 3.209-1.658h2.557c1.359 0 2.601 0.642 3.209 1.658l0.734 1.228c0.549 0.918 1.671 1.498 2.898 1.498 1.79 0 3.241 1.213 3.241 2.71v8.906c0 1.657-1.606 3-3.587 3h-15.547c-1.981 0-3.587-1.343-3.587-3z"></path>
<path stroke-linejoin="miter" stroke-linecap="butt" stroke-miterlimit="4" stroke-width="0.6598" d="M23.503 17.461c0 2.018-1.956 3.654-4.369 3.654s-4.37-1.636-4.37-3.654c0-2.018 1.956-3.654 4.37-3.654s4.37 1.636 4.37 3.654z"></path>
</symbol>

    <symbol id="icon-logo" viewBox="0 0 115 32">
<path d="M101.491 8.459c0.435-0.047 0.913-0.043 1.35-0.010 1.706 0.127 2.943 0.882 4.037 2.159-0.033-0.642-0.070-1.275-0.033-1.918 0.733-0.049 1.475-0.026 2.21-0.024l-0.001 9.068c0.003 1.818 0.163 3.775-0.151 5.565-0.181 1.033-0.543 2.049-1.185 2.888-0.873 1.142-1.975 1.613-3.368 1.791 0.503-0.6 0.985-1.208 1.386-1.881 1.046-2.199 1.063-4.34 1.094-6.717-0.917 1.087-1.888 1.819-3.314 2.084-0.353 0.068-0.758 0.107-1.173 0.107-1.366 0-2.634-0.424-3.677-1.148l0.021 0.014c-1.372-0.95-2.291-2.534-2.575-4.164-0.314-1.795 0.046-3.736 1.102-5.235s2.503-2.268 4.277-2.579zM103.478 19.281c1.999-0.412 3.48-2.157 3.48-4.248 0-2.393-1.94-4.333-4.333-4.333-0.319 0-0.631 0.035-0.93 0.1l0.029-0.005c-1.974 0.431-3.431 2.164-3.431 4.238 0 2.393 1.94 4.333 4.333 4.333 0.302 0 0.596-0.031 0.88-0.089l-0.028 0.005zM67.748 8.426c3.635-0.545 7.023 1.963 7.564 5.599s-1.974 7.021-5.611 7.555c-3.629 0.534-7.005-1.973-7.544-5.601s1.963-7.009 5.591-7.553zM69.479 19.308c2.074-0.351 3.634-2.135 3.634-4.282 0-2.397-1.943-4.34-4.34-4.34-0.296 0-0.585 0.030-0.864 0.086l0.028-0.005c-2.011 0.405-3.504 2.158-3.504 4.259 0 2.397 1.943 4.34 4.34 4.34 0.249 0 0.494-0.021 0.732-0.061l-0.026 0.004zM46.356 8.454c0.517-0.024 1.055-0.049 1.566 0.038 1.457 0.248 2.217 1.114 3.019 2.258 0.226-0.369 0.487-0.721 0.79-1.031 0.83-0.849 1.976-1.277 3.155-1.283 1.267-0.007 2.535 0.315 3.45 1.238 0.545 0.56 0.943 1.265 1.132 2.051l0.006 0.030c0.323 1.339 0.184 2.869 0.183 4.245l0.004 5.077-2.301-0.006-0.004-4.895c0.001-1.116 0.103-2.351-0.125-3.446-0.090-0.438-0.264-0.84-0.562-1.178-0.454-0.518-1.213-0.864-1.901-0.883-0.833-0.025-1.704 0.195-2.307 0.797-0.41 0.409-0.671 0.944-0.813 1.503-0.343 1.358-0.168 4.019-0.163 5.521l0.017 2.586-2.324 0.014 0.015-4.943c0.005-1.11 0.129-2.376-0.121-3.455-0.113-0.491-0.345-0.959-0.703-1.317-0.516-0.518-1.215-0.707-1.93-0.701-0.768 0.006-1.528 0.239-2.070 0.803-0.44 0.457-0.706 1.074-0.838 1.69-0.223 1.039-0.122 2.201-0.122 3.261l0.006 4.656-2.343-0.010c0.113-1.393 0.009-3.267 0.009-4.724 0.001-2.544 0.074-5.118-0.017-7.659 0.784 0.001 1.579 0.030 2.36-0.040l0.003 1.717c0.837-1.046 1.615-1.599 2.929-1.912zM23.603 8.463c0.257-0.031 0.529-0.025 0.788-0.028 1.415-0.014 2.885 0.346 3.915 1.368 0.489 0.488 0.848 1.105 1.024 1.795l0.006 0.027c0.334 1.303 0.181 2.847 0.183 4.185l0.005 5.27-2.302-0.007 0.010-1.508c-0.696 0.849-1.505 1.479-2.57 1.783-1.309 0.374-3.021 0.268-4.211-0.43-0.966-0.566-1.44-1.353-1.735-2.405-0.079-0.879 0.003-1.715 0.499-2.472 1.059-1.621 3.206-1.86 4.947-2.16 1.027-0.177 2.054-0.342 3.070-0.572-0.019-0.557-0.101-1.101-0.393-1.586-0.342-0.568-0.904-0.937-1.542-1.092-0.849-0.206-1.926-0.126-2.673 0.339-0.701 0.438-1.027 1.105-1.217 1.88-0.792-0.039-1.576-0.022-2.367-0.004 0.23-0.881 0.454-1.728 0.992-2.481 0.881-1.231 2.132-1.661 3.571-1.903zM21.714 19.071c0.874 0.524 1.971 0.601 2.947 0.35 0.872-0.225 1.734-0.739 2.184-1.541 0.449-0.797 0.394-1.688 0.386-2.568l-0.073-0.058c-0.759 0.064-1.505 0.22-2.255 0.346-1.114 0.186-2.665 0.234-3.47 1.137-0.311 0.349-0.409 0.748-0.37 1.208 0.042 0.495 0.289 0.806 0.651 1.126zM5.565 3.72c0.767 0.037 1.53-0.003 2.296 0.024-0.059 2.246 0.104 4.511-0.038 6.752 0.179-0.225 0.35-0.458 0.54-0.675 0.753-0.861 1.881-1.33 3.011-1.38 1.302-0.057 2.589 0.239 3.569 1.139 0.631 0.584 1.095 1.339 1.318 2.192l0.007 0.032c0.291 1.101 0.203 2.337 0.203 3.469-0.001 1.928-0.079 3.886 0.015 5.81l-2.271-0.009c-0.051-1.965-0.015-3.939-0.021-5.906 0.019-1.234 0.111-2.699-0.811-3.656-0.57-0.592-1.348-0.842-2.156-0.854-0.896-0.013-1.76 0.255-2.398 0.904-0.369 0.379-0.643 0.854-0.781 1.383l-0.005 0.022c-0.294 1.124-0.179 2.453-0.179 3.613-0.001 0.224-0.001 0.489-0.001 0.753 0 1.315 0.008 2.628 0.024 3.94l-0.002-0.199-2.293 0.005c-0.028-5.779 0.116-11.583-0.028-17.358zM83.204 8.458c0.218-0.010 0.437-0.017 0.655-0.020 1.262-0.012 2.527 0.332 3.44 1.241 0.595 0.591 0.963 1.354 1.156 2.163 0.324 1.363 0.203 2.843 0.202 4.237l0.001 5.005-2.343-0.003c0.023-1.128 0.001-2.261 0.008-3.391 0.008-1.434 0.189-3.645-0.189-4.976-0.209-0.733-0.641-1.408-1.334-1.767-0.854-0.443-1.998-0.333-2.887-0.049-0.359 0.185-0.672 0.377-0.964 0.665-0.467 0.461-0.675 1.003-0.812 1.63-0.238 1.096-0.15 2.29-0.15 3.406l0.008 4.488c-0.772-0.014-1.545-0.004-2.317-0.004 0.064-4.126 0.008-8.264 0.011-12.391l2.303-0.003c0.004 0.59-0.004 1.181-0.006 1.77 0.836-1.221 1.809-1.69 3.217-2.002zM37.739 8.454c0.461-0.021 0.923-0.014 1.384-0.015 0.015 0.839 0.003 1.68 0.002 2.519-0.174-0.007-0.348-0.012-0.522-0.017-1.048-0.026-2.184 0.111-2.965 0.889-0.414 0.413-0.665 0.952-0.799 1.515-0.254 1.067-0.171 2.249-0.172 3.339l0.014 4.396c-0.456 0.001-1.926 0.167-2.305-0.090l-0.019-0.232c-0.087-4.010-0.020-8.044 0.005-12.056l2.349-0.013c-0.065 0.657-0.032 1.326-0.018 1.985 0.885-1.312 1.449-1.83 3.046-2.219zM91.35 8.696c0.773 0.006 1.546 0.006 2.319 0v12.387c-0.23-0.003-0.502-0.004-0.775-0.004-0.547 0-1.092 0.006-1.636 0.019l0.081-0.002c0.051-4.132 0.012-8.269 0.011-12.401zM92.031 3.716c0.285-0.016 0.598-0.050 0.878 0.017 0.376 0.090 0.729 0.363 0.91 0.703 0.178 0.34 0.205 0.739 0.073 1.099-0.177 0.476-0.521 0.72-0.964 0.925-0.298 0.018-0.596 0.033-0.886-0.057-0.377-0.118-0.714-0.39-0.888-0.746-0.085-0.168-0.136-0.367-0.136-0.577 0-0.152 0.026-0.298 0.074-0.434l-0.003 0.009c0.166-0.473 0.511-0.724 0.941-0.939z"></path>
</symbol>
<symbol id="icon-remove-saved" viewBox="0 0 24 24">
  <path stroke="#374F42" stroke-linecap="round" stroke-linejoin="round" d="M8.712 19.125H4.875v-3.844l7.947-7.962m-4.11 11.806h10.413m-10.413 0 7.947-7.963M12.822 7.32l1.644-1.648a2.71 2.71 0 0 1 3.837 0 2.722 2.722 0 0 1 0 3.844l-1.644 1.647M12.822 7.32l3.837 3.843"/>
</symbol>
<symbol id="icon-alert" viewBox="0 0 32 32">
<path stroke-linejoin="miter" stroke-linecap="round" stroke-miterlimit="4" stroke-width="1.6" d="M16 22.755v1.69M16 7.555v10.134M31.2 16c0 8.394-6.806 15.2-15.2 15.2s-15.2-6.806-15.2-15.2 6.806-15.2 15.2-15.2 15.2 6.806 15.2 15.2z"></path>
</symbol>
  </defs>
</svg>
